Coordinates
version=1
nRows=33
nColumns=30
inDegrees=yes

Units are S.I. units (second, meters, Newtons, ...)
Angles are in degrees.

endheader
time	floatyaw	floatroll	floatpitch	floatx	floaty	floatz	pro_sup_l	deviation_l	flexion_l	cmc_flexion_l	cmc_abduction_l	mp_flexion_l	ip_flexion_l	2mcp_flexion_l	2mcp_abduction_l	2pm_flexion_l	2md_flexion_l	3mcp_flexion_l	3mcp_abduction_l	3pm_flexion_l	3md_flexion_l	4mcp_flexion_l	4mcp_abduction_l	4pm_flexion_l	4md_flexion_l	5mcp_flexion_l	5mcp_abduction_l	5pm_flexion_l	5md_flexion_l
-1.495000	0.749225	-1.746491	98.520729	-0.105231	-0.193453	-0.025784	88.100758	0.801562	-1.177928	18.838554	4.026732	-21.586442	-34.932166	36.172681	8.230374	45.878239	32.301968	22.303808	4.773998	45.329438	30.703413	12.691853	-4.545210	59.485718	40.714297	8.864297	-8.896531	58.530887	40.956095
-1.485000	0.749225	-1.746491	98.520729	-0.105230	-0.193452	-0.025773	88.101051	0.795537	-1.178026	18.815279	4.019909	-21.588384	-34.928030	36.175174	8.227492	45.891373	32.308888	22.299380	4.777267	45.331883	30.724672	12.699893	-4.546767	59.481537	40.721265	8.869698	-8.897259	58.546398	40.953301
-1.475000	0.749225	-1.746491	98.520729	-0.105229	-0.193450	-0.025761	88.103607	0.790322	-1.179897	18.795873	4.013690	-21.592720	-34.927089	36.179133	8.226548	45.905263	32.315410	22.296834	4.780929	45.340001	30.745524	12.710447	-4.547715	59.482694	40.727323	8.879532	-8.898770	58.561585	40.949706
-1.465000	0.749225	-1.746491	98.520729	-0.105226	-0.193449	-0.025747	88.107449	0.785537	-1.183476	18.780262	4.007345	-21.600593	-34.929818	36.185389	8.226023	45.917844	32.320155	22.295782	4.784774	45.354594	30.763613	12.721869	-4.548802	59.490300	40.731964	8.891757	-8.900283	58.575260	40.945434
-1.455000	0.749225	-1.746491	98.520729	-0.105222	-0.193447	-0.025732	88.111953	0.780863	-1.187856	18.767056	3.999783	-21.611738	-34.935470	36.193413	8.224272	45.926749	32.321967	22.295745	4.788387	45.372861	30.776924	12.731862	-4.550507	59.503052	40.735271	8.905027	-8.901275	58.585602	40.940240
-1.445000	0.749225	-1.746491	98.520729	-0.105216	-0.193445	-0.025715	88.117013	0.776236	-1.191733	18.754142	3.989879	-21.624562	-34.942377	36.201626	8.220293	45.930391	32.320506	22.296744	4.790994	45.390080	30.784804	12.738201	-4.552648	59.517825	40.737697	8.918863	-8.901529	58.591127	40.933785
-1.435000	0.749225	-1.746491	98.520729	-0.105210	-0.193441	-0.025697	88.122851	0.771816	-1.194165	18.739514	3.976821	-21.636898	-34.948669	36.208449	8.214163	45.928707	32.316457	22.299625	4.791572	45.402322	30.788353	12.739632	-4.554366	59.531118	40.739684	8.933318	-8.900903	58.591658	40.925986
-1.425000	0.749225	-1.746491	98.520729	-0.105205	-0.193435	-0.025679	88.129805	0.767891	-1.195167	18.721997	3.960318	-21.647011	-34.953068	36.213526	8.206881	45.923181	32.311221	22.305850	4.789239	45.408533	30.790024	12.736505	-4.554540	59.540585	40.741402	8.948395	-8.899019	58.588565	40.917184
-1.415000	0.749225	-1.746491	98.520729	-0.105200	-0.193429	-0.025662	88.138252	0.764813	-1.195763	18.701580	3.940761	-21.654340	-34.955356	36.218286	8.199694	45.916369	32.306372	22.316734	4.783741	45.411048	30.792712	12.730623	-4.552348	59.545897	40.742803	8.963676	-8.895229	58.584186	40.908089
-1.405000	0.749225	-1.746491	98.520729	-0.105196	-0.193422	-0.025645	88.148434	0.762857	-1.197414	18.679253	3.919406	-21.659563	-34.956275	36.225330	8.193388	45.911288	32.303234	22.332452	4.775748	45.414582	30.798787	12.724298	-4.547646	59.548685	40.743925	8.978485	-8.889085	58.580931	40.899569
-1.395000	0.749225	-1.746491	98.520729	-0.105192	-0.193416	-0.025628	88.160121	0.761958	-1.201170	18.656433	3.898276	-21.664031	-34.956926	36.236904	8.187992	45.910775	32.302679	22.351427	4.766769	45.424329	30.809408	12.719328	-4.541016	59.551736	40.745186	8.992396	-8.880932	58.580598	40.892421
-1.385000	0.749225	-1.746491	98.520729	-0.105186	-0.193412	-0.025612	88.172326	0.761474	-1.207073	18.634321	3.879476	-21.668999	-34.958076	36.253412	8.183005	45.916843	32.305067	22.370550	4.758680	45.443993	30.824273	12.716707	-4.533552	59.557815	40.747336	9.005527	-8.871993	58.584113	40.887194
-1.375000	0.749225	-1.746491	98.520729	-0.105180	-0.193409	-0.025596	88.183436	0.760244	-1.214161	18.613497	3.864132	-21.675141	-34.959813	36.272979	8.177826	45.930172	32.310254	22.386166	4.753094	45.474436	30.841866	12.717193	-4.526563	59.568502	40.751012	9.018361	-8.863809	58.591504	40.884081
-1.365000	0.749225	-1.746491	98.520729	-0.105173	-0.193408	-0.025581	88.191778	0.757021	-1.220983	18.593878	3.851733	-21.682510	-34.961714	36.292345	8.171979	45.949871	32.317655	22.395311	4.750896	45.513263	30.860050	12.721947	-4.521293	59.583400	40.756155	9.031454	-8.857524	58.601877	40.882847
-1.355000	0.749225	-1.746491	98.520729	-0.105165	-0.193408	-0.025566	88.196346	0.751067	-1.226278	18.574909	3.840426	-21.690762	-34.963279	36.308482	8.165028	45.973541	32.326315	22.396655	4.752173	45.555293	30.876671	12.732319	-4.518678	59.600073	40.761785	9.045505	-8.853651	58.613388	40.882769
-1.345000	0.749225	-1.746491	98.520729	-0.105157	-0.193408	-0.025551	88.197276	0.742536	-1.229459	18.555797	3.828044	-21.699379	-34.964262	36.319964	8.156428	45.997651	32.335034	22.390925	4.756415	45.593823	30.889920	12.748756	-4.519096	59.614842	40.766374	9.061656	-8.852360	58.623361	40.882614
-1.335000	0.749225	-1.746491	98.520729	-0.105149	-0.193409	-0.025536	88.195892	0.732422	-1.230743	18.535654	3.813164	-21.707812	-34.964703	36.327404	8.145713	46.018385	32.342616	22.380786	4.762746	45.622629	30.898555	12.769892	-4.522204	59.624210	40.768623	9.081480	-8.853760	58.628731	40.880713
-1.325000	0.749225	-1.746491	98.520729	-0.105143	-0.193410	-0.025521	88.194371	0.722149	-1.230985	18.513579	3.795678	-21.715591	-34.964763	36.332899	8.133023	46.032905	32.348264	22.370246	4.770035	45.638279	30.902184	12.792958	-4.526998	59.626310	40.768101	9.106325	-8.857686	58.626826	40.875277
-1.315000	0.749225	-1.746491	98.520729	-0.105139	-0.193408	-0.025505	88.195120	0.713027	-1.231356	18.488810	3.776780	-21.722420	-34.964568	36.338866	8.119572	46.040529	32.351918	22.363554	4.776984	45.641784	30.901620	12.815396	-4.532194	59.621724	40.765340	9.136302	-8.863110	58.616442	40.865030
-1.305000	0.749225	-1.746491	98.520729	-0.105136	-0.193405	-0.025486	88.199962	0.705837	-1.232999	18.461050	3.758471	-21.728257	-34.964229	36.346849	8.107508	46.043057	32.354278	22.363818	4.782340	45.638472	30.898942	12.836270	-4.536777	59.613249	40.761398	9.169524	-8.867814	58.598952	40.850048
-1.295000	0.749225	-1.746491	98.520729	-0.105133	-0.193400	-0.025465	88.209350	0.700642	-1.236700	18.430874	3.742639	-21.733289	-34.963974	36.356902	8.099055	46.043953	32.356461	22.371880	4.785227	45.635873	30.896998	12.856243	-4.540386	59.604702	40.757270	9.202217	-8.868879	58.578750	40.832292
-1.285000	0.749225	-1.746491	98.520729	-0.105128	-0.193395	-0.025443	88.222072	0.696938	-1.242652	18.399929	3.729970	-21.737831	-34.964225	36.367819	8.095395	46.046778	32.359455	22.386049	4.785477	45.640533	30.898378	12.876329	-4.543343	59.599328	40.753514	9.229968	-8.863912	58.562261	40.815247
-1.275000	0.749225	-1.746491	98.520729	-0.105121	-0.193390	-0.025420	88.235768	0.694068	-1.250400	18.370574	3.719248	-21.742228	-34.965542	36.378017	8.095979	46.053700	32.363700	22.402867	4.783761	45.655305	30.904330	12.896729	-4.546343	59.598633	40.750247	9.249727	-8.852321	58.555469	40.802552
-1.265000	0.749225	-1.746491	98.520729	-0.105111	-0.193386	-0.025399	88.248025	0.691640	-1.259009	18.344958	3.707753	-21.746858	-34.968460	36.386472	8.098649	46.064850	32.368978	22.418536	4.781400	45.678430	30.914238	12.916665	-4.549988	59.602200	40.747410	9.261534	-8.835936	58.561058	40.796256
-1.255000	0.749225	-1.746491	98.520729	-0.105099	-0.193386	-0.025380	88.257401	0.689635	-1.267421	18.323955	3.692893	-21.752170	-34.973335	36.393191	8.100541	46.078795	32.374695	22.430408	4.779877	45.704878	30.926038	12.935020	-4.554363	59.608489	40.745085	9.268898	-8.818610	58.576963	40.795789
-1.245000	0.749225	-1.746491	98.520729	-0.105086	-0.193386	-0.025364	88.263824	0.688175	-1.274856	18.306621	3.674264	-21.758622	-34.980183	36.399011	8.099285	46.093778	32.380376	22.437854	4.780219	45.729191	30.937397	12.951006	-4.558899	59.615988	40.743632	9.277426	-8.804878	58.597433	40.798325
-1.235000	0.749225	-1.746491	98.520729	-0.105074	-0.193386	-0.025350	88.268273	0.687203	-1.281075	18.290592	3.654659	-21.766447	-34.988554	36.404968	8.093930	46.108928	32.386071	22.442134	4.782568	45.748187	30.946970	12.964404	-4.562672	59.623923	40.743514	9.292233	-8.798164	58.616017	40.800314
-1.225000	0.749225	-1.746491	98.520729	-0.105062	-0.193385	-0.025338	88.272098	0.686381	-1.286360	18.273296	3.638969	-21.775437	-34.997556	36.411707	8.085163	46.124699	32.392379	22.445408	4.786153	45.762009	30.954972	12.975505	-4.564992	59.632178	40.744888	9.315507	-8.799299	58.628549	40.799179
-1.215000	0.749225	-1.746491	98.520729	-0.105053	-0.193383	-0.025324	88.276418	0.685238	-1.291243	18.253383	3.631344	-21.784949	-35.006147	36.419289	8.074836	46.142362	32.400064	22.449575	4.789668	45.773226	30.962785	12.985076	-4.565898	59.640790	40.747279	9.345663	-8.806088	58.634289	40.794195
-1.205000	0.749225	-1.746491	98.520729	-0.105045	-0.193379	-0.025309	88.281843	0.683386	-1.296206	18.231599	3.632384	-21.794152	-35.013614	36.427380	8.065138	46.162999	32.409494	22.455668	4.791858	45.784987	30.971954	12.994370	-4.566171	59.649652	40.749642	9.378703	-8.814259	58.634913	40.786236
-1.195000	0.749225	-1.746491	98.520729	-0.105037	-0.193374	-0.025292	88.288527	0.680671	-1.301555	18.210551	3.638318	-21.802346	-35.019914	36.435551	8.057801	46.186679	32.420283	22.464008	4.791976	45.799554	30.983258	13.004874	-4.566810	59.658679	40.750849	9.410863	-8.819384	58.632521	40.776784
-1.185000	0.749225	-1.746491	98.520729	-0.105029	-0.193370	-0.025275	88.296405	0.677301	-1.307503	18.193395	3.642721	-21.809168	-35.025591	36.443399	8.053543	46.212245	32.431351	22.474768	4.789915	45.817798	30.996316	13.017552	-4.568293	59.668091	40.750296	9.440638	-8.818722	58.628241	40.767011
-1.175000	0.749225	-1.746491	98.520729	-0.105019	-0.193368	-0.025260	88.305466	0.673998	-1.314296	18.182153	3.639582	-21.814634	-35.031323	36.450428	8.051835	46.237661	32.441339	22.488347	4.786001	45.839288	31.009738	13.031984	-4.570154	59.678337	40.748234	9.468829	-8.811956	58.622149	40.757448
